<?xml version="1.0" standalone="no"?>
<!DOCTYPE svg PUBLIC "-//W3C//DTD SVG 20010904//EN"
 "http://www.w3.org/TR/2001/REC-SVG-20010904/DTD/svg10.dtd">
<svg version="1.0" xmlns="http://www.w3.org/2000/svg"
 width="300.000000pt" height="83.000000pt" viewBox="0 0 300.000000 83.000000"
 preserveAspectRatio="xMidYMid meet">
<metadata>
Created by potrace 1.10, written by Peter Selinger 2001-2011
</metadata>
<g transform="translate(0.000000,83.000000) scale(0.100000,-0.100000)"
fill="#000000" stroke="none">
<path d="M6 804 c-9 -23 1 -34 30 -34 32 0 80 -25 88 -45 11 -29 7 -595 -4
-616 -12 -22 -61 -49 -90 -49 -13 0 -20 -7 -20 -20 0 -19 7 -20 150 -20 140 0
150 1 150 19 0 14 -10 20 -39 25 -21 3 -49 14 -62 25 l-24 19 -3 269 c-2 162
1 264 6 258 5 -6 69 -91 142 -190 327 -444 312 -425 342 -425 l28 0 0 340 c0
227 4 347 11 363 12 26 47 47 79 47 14 0 20 7 20 23 0 22 -2 22 -140 23 l-140
2 0 -24 c0 -20 5 -24 29 -24 17 0 42 -10 58 -24 l28 -24 3 -235 c2 -191 6
-238 18 -247 10 -9 14 -34 13 -94 -1 -130 -5 -131 -84 -21 -39 54 -75 102 -80
109 -29 31 -155 207 -155 216 0 6 -4 10 -10 10 -5 0 -22 19 -36 42 -15 23 -35
51 -46 62 -11 12 -27 33 -36 48 -19 33 -40 42 -58 27 -11 -9 -14 -63 -14 -272
l0 -260 39 -36 39 -36 -93 0 c-86 0 -90 1 -63 14 16 8 37 26 48 41 18 26 20
47 20 328 1 265 -1 304 -16 327 -9 14 -22 25 -30 25 -7 0 -16 5 -19 10 -4 6
17 10 57 9 l63 0 58 -77 c32 -42 83 -111 113 -152 30 -41 61 -83 69 -92 7 -9
22 -29 32 -45 22 -34 106 -145 147 -193 20 -24 28 -29 24 -15 -4 18 -236 337
-384 529 l-58 76 -97 0 c-79 0 -98 -3 -103 -16z m729 -29 c-23 -16 -34 -27
-54 -51 -13 -15 -15 -15 -24 2 -5 11 -21 29 -36 41 l-26 23 80 0 c72 -1 78 -2
60 -15z"/>
<path d="M843 803 c-8 -20 7 -33 36 -33 38 0 61 -20 70 -61 9 -39 5 -582 -5
-611 -6 -21 -42 -38 -80 -38 -18 0 -24 -5 -24 -21 0 -21 2 -21 248 -17 l247 3
60 32 c117 61 188 161 206 290 30 217 -81 400 -272 449 -78 20 -479 26 -486 7z
m251 -31 c-12 -9 -26 -26 -32 -37 -6 -13 -11 -136 -11 -321 l-1 -301 25 -37
24 -36 -92 0 c-89 0 -91 1 -71 18 12 9 25 26 29 37 4 11 9 154 10 319 3 312 1
329 -41 361 -17 13 -7 14 81 14 96 1 99 0 79 -17z m195 -12 c123 -35 171 -134
171 -348 -1 -181 -30 -269 -108 -322 -46 -32 -207 -42 -247 -16 l-25 16 0 325
c0 323 0 324 22 339 26 18 133 22 187 6z m206 -92 c29 -32 47 -65 56 -98 7
-28 16 -50 21 -50 4 0 8 -47 8 -105 0 -58 -4 -105 -8 -105 -5 0 -14 -22 -21
-49 -14 -56 -62 -117 -126 -161 -58 -40 -65 -38 -21 7 20 21 36 43 36 51 0 7
9 31 20 52 18 35 20 59 21 203 0 161 -1 164 -31 228 -19 40 -43 73 -65 89 -51
37 -42 45 16 13 28 -15 70 -49 94 -75z"/>
<path d="M1785 806 c-67 -29 -134 -125 -135 -191 0 -75 40 -147 104 -187 23
-14 82 -38 131 -54 138 -43 193 -86 210 -166 9 -39 -26 -113 -66 -137 -128
-78 -288 20 -338 207 -9 31 -17 42 -31 42 -19 0 -20 -8 -20 -150 0 -139 1
-150 18 -150 10 0 29 11 42 25 28 30 43 31 78 7 67 -47 202 -58 270 -23 88 45
142 129 142 221 0 110 -67 178 -227 230 -54 18 -118 43 -141 57 -117 67 -90
228 40 249 93 16 179 -51 227 -176 17 -44 36 -76 45 -78 14 -3 16 15 16 142 0
160 -5 171 -50 115 l-26 -30 -58 30 c-49 26 -69 31 -130 31 -39 -1 -85 -7
-101 -14z m348 -39 c-5 -7 -8 -44 -7 -84 1 -80 -8 -84 -37 -18 -10 23 -26 48
-34 55 -22 18 -19 33 4 20 16 -8 24 -5 43 19 21 26 49 33 31 8z m-374 -19 c-7
-13 -18 -29 -26 -36 -7 -8 -13 -35 -13 -64 0 -28 3 -48 7 -45 3 4 16 -9 27
-29 23 -41 108 -91 193 -114 146 -41 211 -97 214 -187 3 -72 -11 -120 -48
-163 -43 -50 -54 -47 -18 5 26 39 36 125 15 125 -5 0 -10 5 -10 12 0 6 -11 26
-25 44 -29 38 -115 83 -222 115 -124 37 -180 105 -169 204 3 28 6 56 6 62 0
12 67 93 77 93 2 0 -2 -10 -8 -22z m-74 -528 c6 -26 30 -63 89 -139 7 -10 3
-9 -15 3 -26 16 -28 16 -57 -9 -16 -14 -32 -25 -34 -25 -2 0 -4 45 -5 100 0
99 9 129 22 70z"/>
<path d="M2190 793 c0 -20 5 -23 39 -23 69 0 71 -8 71 -293 0 -157 4 -265 12
-295 15 -61 85 -132 153 -155 54 -19 110 -23 100 -7 -4 6 13 10 45 10 36 0 49
-3 44 -12 -13 -21 78 1 126 30 26 16 57 48 75 76 l30 49 2 265 c1 145 4 274 7
287 5 21 38 40 81 47 12 2 20 11 20 23 0 19 -7 20 -142 20 -142 0 -143 0 -143
-22 0 -19 5 -23 31 -23 40 0 68 -16 79 -44 5 -13 10 -138 12 -277 3 -249 2
-255 -20 -294 -36 -63 -91 -96 -168 -103 -110 -8 -189 38 -214 126 -5 21 -10
149 -10 298 0 293 -2 283 73 293 33 5 43 11 45 27 3 20 0 21 -173 20 l-175 0
0 -23z m236 -28 l-26 -24 0 -282 c0 -239 2 -286 16 -315 18 -38 89 -104 112
-104 9 0 12 -3 9 -7 -9 -8 -87 17 -87 29 0 4 -7 8 -17 8 -28 0 -90 75 -97 117
-4 21 -9 148 -11 282 -2 133 -7 253 -11 265 -3 11 -16 29 -28 38 -20 17 -18
18 73 18 l94 0 -27 -25z m494 16 c0 -5 -9 -13 -20 -16 -14 -4 -22 -19 -26 -46
-8 -47 -19 -50 -28 -9 -3 17 -18 42 -32 55 l-27 25 67 0 c36 0 66 -4 66 -9z
m-53 -133 c-3 -8 -6 -5 -6 6 -1 11 2 17 5 13 3 -3 4 -12 1 -19z m0 -360 c-3
-8 -6 -5 -6 6 -1 11 2 17 5 13 3 -3 4 -12 1 -19z m-39 -168 c-7 -11 -17 -20
-22 -20 -5 0 -1 9 9 20 10 11 20 20 22 20 2 0 -2 -9 -9 -20z"/>
<path d="M2192 610 c0 -14 2 -19 5 -12 2 6 2 18 0 25 -3 6 -5 1 -5 -13z"/>
</g>
</svg>
