<?xml version="1.0" standalone="no"?>
<!DOCTYPE svg PUBLIC "-//W3C//DTD SVG 20010904//EN"
 "http://www.w3.org/TR/2001/REC-SVG-20010904/DTD/svg10.dtd">
<svg version="1.0" xmlns="http://www.w3.org/2000/svg"
 width="300.000000pt" height="134.000000pt" viewBox="0 0 300.000000 134.000000"
 preserveAspectRatio="xMidYMid meet">
<metadata>
Created by potrace 1.10, written by Peter Selinger 2001-2011
</metadata>
<g transform="translate(0.000000,134.000000) scale(0.100000,-0.100000)"
fill="#000000" stroke="none">
<path d="M420 1195 l0 -140 -210 3 c-184 2 -210 1 -210 -13 0 -8 3 -15 8 -15
4 0 7 -81 7 -180 0 -99 -3 -180 -7 -180 -5 0 -8 -4 -8 -10 0 -6 78 -10 215
-10 l215 0 0 -211 c0 -208 0 -211 27 -265 15 -31 41 -68 59 -84 18 -15 30 -31
26 -35 -4 -4 -2 -6 3 -4 6 1 30 -7 55 -19 44 -21 55 -22 535 -22 l490 0 52 24
c60 29 123 88 155 148 20 38 23 57 23 158 0 106 -2 120 -28 172 -25 51 -69
100 -123 136 -17 12 -17 12 -1 7 10 -3 63 -5 117 -5 l99 0 3 -207 c3 -187 5
-213 24 -254 31 -66 91 -128 149 -155 49 -23 56 -24 365 -24 311 0 316 1 365
24 57 27 114 83 144 141 20 39 21 56 21 460 l1 420 -201 0 -201 0 1 -309 c0
-219 -3 -312 -11 -322 -14 -17 -224 -20 -234 -4 -4 6 -6 150 -5 321 l1 310
-618 -3 -618 -3 -53 -29 c-62 -35 -102 -77 -137 -146 -22 -43 -25 -63 -25
-148 0 -146 39 -236 126 -291 l40 -26 -108 2 -109 3 -2 460 -2 461 -208 2
-207 2 0 -140z m380 -346 c0 -327 3 -455 11 -465 9 -11 53 -14 218 -13 l206 1
-65 22 c-142 49 -207 106 -237 206 -41 135 -11 264 78 344 87 78 69 76 716 76
l573 0 0 -299 c0 -374 -13 -346 160 -346 173 0 160 -28 160 346 l0 299 175 0
175 0 0 -368 c0 -409 -3 -435 -63 -514 -18 -24 -55 -54 -86 -70 l-53 -28 -307
0 c-344 0 -352 2 -426 75 -72 73 -79 102 -83 347 l-4 218 -191 0 c-106 0 -203
3 -216 7 -16 4 -22 2 -18 -4 4 -6 24 -14 44 -18 58 -11 136 -51 178 -92 54
-52 78 -112 83 -209 6 -112 -14 -172 -82 -239 -86 -86 -77 -85 -615 -85 l-466
0 -50 24 c-60 29 -107 76 -134 136 -19 41 -21 65 -21 268 l0 222 -215 0 -215
0 0 165 0 165 215 0 215 0 0 143 0 142 171 -2 170 -2 -1 -452z"/>
<path d="M501 1118 l1 -143 -211 0 -211 0 0 -122 0 -123 213 0 212 0 -3 -216
c-3 -256 5 -301 68 -364 70 -70 86 -72 592 -68 432 3 444 4 483 25 95 51 139
128 137 241 -1 130 -58 212 -174 255 -24 8 -103 35 -177 59 -74 24 -136 49
-139 56 -3 9 72 12 352 12 l356 0 0 -233 0 -233 28 -55 c34 -69 99 -115 175
-124 28 -4 165 -5 302 -3 236 3 252 4 292 25 51 27 96 82 112 132 7 26 11 155
11 387 l0 349 -125 0 -125 0 0 -273 c0 -375 2 -372 -213 -372 -112 0 -127 2
-152 22 -52 41 -56 65 -55 354 l1 265 -552 -1 c-612 0 -596 1 -665 -68 -51
-51 -69 -97 -68 -182 0 -93 16 -141 62 -192 45 -50 65 -60 220 -109 70 -22
145 -46 166 -53 22 -7 42 -18 44 -24 3 -9 -76 -12 -327 -12 -318 0 -332 1
-351 20 -19 19 -20 33 -20 465 l0 445 -130 0 -131 0 2 -142z m231 -305 c-2
-292 1 -426 9 -445 12 -31 41 -52 83 -62 45 -11 605 -7 627 5 23 12 26 59 3
59 -8 0 -13 4 -10 9 3 5 -21 15 -54 22 -33 7 -60 17 -60 22 0 4 -4 6 -9 3 -11
-7 -162 40 -214 66 -45 23 -88 68 -104 111 -15 40 -16 177 -3 213 6 15 22 37
35 50 13 12 21 25 18 28 -3 3 19 17 49 31 l55 25 534 -2 534 -3 3 -265 c1
-146 4 -271 7 -278 2 -7 3 -14 2 -16 -1 -2 17 -19 41 -39 50 -42 91 -51 221
-46 99 4 126 17 169 79 21 32 22 40 22 300 l0 268 99 1 c90 2 99 0 104 -18 2
-11 4 -169 3 -353 -1 -318 -2 -334 -21 -356 -11 -12 -20 -28 -20 -35 -1 -7 -6
-11 -13 -9 -7 1 -11 -3 -10 -10 2 -6 -15 -22 -37 -34 -39 -23 -45 -24 -332
-24 -296 0 -325 3 -363 39 -8 8 -15 18 -15 23 0 4 -3 7 -8 6 -4 -2 -17 12 -28
31 -19 32 -21 53 -25 279 -2 135 -7 249 -12 254 -4 4 -169 7 -367 6 -327 -3
-359 -5 -369 -20 -18 -29 9 -44 169 -94 152 -47 204 -68 217 -88 4 -6 8 -8 8
-4 0 18 43 -30 61 -67 26 -55 32 -192 10 -237 -8 -18 -19 -35 -23 -36 -4 -2
-8 -9 -8 -15 0 -16 -44 -49 -84 -64 -22 -8 -166 -12 -497 -12 l-465 -1 -46 29
c-30 19 -52 44 -67 73 -20 41 -21 59 -21 279 0 169 -3 238 -12 247 -9 9 -70
12 -213 12 l-201 0 -1 100 0 100 198 0 c166 0 200 2 213 16 13 12 16 40 16
140 l0 124 103 0 102 0 -3 -417z"/>
</g>
</svg>
