<?xml version="1.0" standalone="no"?>
<!DOCTYPE svg PUBLIC "-//W3C//DTD SVG 20010904//EN"
 "http://www.w3.org/TR/2001/REC-SVG-20010904/DTD/svg10.dtd">
<svg version="1.0" xmlns="http://www.w3.org/2000/svg"
 width="300.000000pt" height="230.000000pt" viewBox="0 0 300.000000 230.000000"
 preserveAspectRatio="xMidYMid meet">
<metadata>
Created by potrace 1.10, written by Peter Selinger 2001-2011
</metadata>
<g transform="translate(0.000000,230.000000) scale(0.100000,-0.100000)"
fill="#000000" stroke="none">
<path d="M190 1830 l0 -150 54 0 55 0 3 -537 c4 -484 6 -543 22 -593 62 -189
200 -315 391 -355 81 -17 233 -19 323 -5 184 30 314 137 372 304 45 131 50
203 50 709 l0 477 55 0 55 0 0 150 0 150 -277 0 -278 0 0 -150 0 -150 55 0 55
0 -2 -237 c-8 -721 -7 -714 -31 -774 -34 -87 -80 -122 -172 -134 -111 -13
-200 27 -237 107 -38 80 -43 157 -43 606 l0 432 55 0 55 0 0 150 0 150 -280 0
-280 0 0 -150z m513 123 c15 -4 17 -19 17 -128 0 -119 -1 -124 -20 -120 -11 2
-33 -1 -49 -6 -27 -10 -30 -15 -34 -72 -6 -90 1 -846 9 -882 3 -16 7 -37 8
-45 4 -27 43 -104 64 -126 12 -12 19 -25 16 -28 -2 -3 -1 -4 3 -1 3 3 12 0 20
-6 7 -6 13 -8 13 -3 0 5 4 3 8 -3 4 -7 24 -15 43 -17 18 -3 36 -5 39 -6 15 -5
110 2 140 11 58 15 115 78 141 156 22 66 23 82 27 534 4 520 8 492 -66 493
l-37 1 -3 119 c-1 67 1 122 7 125 5 3 119 6 253 6 l243 0 2 -122 c1 -68 1
-123 0 -124 -1 0 -22 -2 -47 -5 -25 -3 -49 -10 -55 -15 -6 -6 -11 -182 -12
-477 -3 -600 -5 -620 -61 -747 -31 -69 -41 -84 -99 -141 -36 -35 -113 -81
-148 -89 -5 -1 -30 -7 -54 -14 -25 -7 -55 -11 -68 -8 -13 2 -23 0 -23 -5 0
-22 -243 -1 -330 28 -146 49 -291 209 -304 336 -3 24 -6 43 -7 43 -6 0 -9 106
-12 558 -3 490 -4 509 -22 520 -11 6 -35 11 -55 11 l-35 1 -3 105 c-4 164 -31
148 240 148 128 0 241 -2 251 -5z"/>
<path d="M1615 1830 l0 -150 58 0 57 0 0 -590 0 -590 -54 0 -55 0 -3 -151 c-2
-83 -2 -151 -1 -152 1 -1 125 -1 277 1 l276 3 0 149 0 150 -55 0 -55 0 2 226
3 226 208 -2 207 -1 0 153 0 153 -210 -3 -210 -3 0 215 0 216 231 0 232 0 -5
-85 -4 -85 153 0 153 0 0 235 0 235 -602 0 -603 0 0 -150z m1118 121 l57 -1 0
-205 c0 -188 -1 -205 -17 -206 -28 -1 -154 -2 -195 0 l-38 1 0 63 c0 104 9
101 -250 99 -178 -1 -226 -4 -237 -15 -21 -21 -19 -427 2 -443 8 -6 13 -13 11
-15 -3 -2 84 -3 192 -1 l197 3 -2 -108 c-1 -59 -2 -116 -2 -125 -1 -17 -17
-18 -189 -18 -141 0 -193 -3 -206 -13 -17 -13 -19 -31 -18 -233 1 -120 2 -222
2 -226 0 -19 36 -38 69 -38 l38 0 -1 -122 -1 -123 -246 -3 -246 -2 -7 31 c-3
17 -6 74 -6 125 l0 94 44 0 c28 0 48 6 57 16 11 14 14 121 13 602 -1 581 -1
586 -22 602 -14 12 -33 16 -56 13 l-36 -3 0 123 c0 68 2 126 4 128 3 3 761 3
1089 0z"/>
</g>
</svg>
