<svg id="svg" version="1.1" xmlns="http://www.w3.org/2000/svg" xmlns:xlink="http://www.w3.org/1999/xlink" width="400" height="410.958904109589" viewBox="0, 0, 400,410.958904109589"><g id="svgg"><path id="path0" d="M64.800 128.600 L 64.800 143.200 69.700 143.206 C 72.395 143.209,74.870 143.383,75.200 143.591 C 75.726 143.924,75.828 150.030,76.027 193.085 C 76.257 242.857,76.499 251.226,77.818 255.114 C 78.138 256.057,78.400 257.356,78.400 258.000 C 78.400 258.645,78.649 259.764,78.954 260.486 C 79.259 261.209,79.910 262.880,80.401 264.200 C 81.699 267.687,83.675 271.602,84.700 272.714 C 84.975 273.013,85.200 273.397,85.200 273.567 C 85.200 273.738,85.515 274.255,85.900 274.717 C 86.285 275.178,87.050 276.151,87.600 276.878 C 90.996 281.368,97.771 287.012,102.671 289.433 C 103.599 289.892,104.592 290.451,104.879 290.675 C 105.165 290.900,105.940 291.277,106.600 291.513 C 107.260 291.749,108.790 292.329,110.000 292.803 C 112.459 293.765,115.600 294.662,118.600 295.259 C 119.700 295.478,121.950 295.928,123.600 296.259 C 127.216 296.984,147.569 296.868,151.200 296.102 C 152.410 295.847,154.300 295.463,155.400 295.250 C 160.019 294.353,166.255 292.279,168.800 290.793 C 169.130 290.601,170.276 289.970,171.348 289.393 C 172.419 288.815,173.499 288.174,173.748 287.968 C 173.996 287.761,175.180 286.831,176.378 285.900 C 180.883 282.400,185.398 276.717,187.899 271.400 C 188.417 270.300,189.101 268.890,189.420 268.268 C 189.739 267.645,190.006 266.925,190.014 266.668 C 190.021 266.410,190.375 265.480,190.800 264.600 C 191.225 263.720,191.579 262.601,191.586 262.114 C 191.594 261.626,191.851 260.636,192.158 259.914 C 192.786 258.437,193.457 255.463,194.033 251.600 C 194.247 250.170,194.722 247.470,195.089 245.600 C 195.682 242.578,195.781 236.726,195.978 193.018 L 196.200 143.836 197.200 143.558 C 197.750 143.405,200.315 143.262,202.900 143.240 L 207.600 143.200 207.600 128.600 L 207.600 114.000 179.200 114.000 L 150.800 114.000 150.800 128.553 L 150.800 143.105 155.900 143.266 C 158.705 143.354,161.225 143.566,161.500 143.736 C 162.103 144.111,162.187 226.486,161.590 231.800 C 160.807 238.759,160.128 243.040,159.675 243.874 C 159.414 244.354,159.200 245.129,159.200 245.596 C 159.200 247.224,157.036 251.609,154.833 254.444 C 147.528 263.848,125.737 264.420,118.342 255.402 C 117.980 254.961,117.305 254.167,116.842 253.639 C 115.783 252.429,113.797 248.248,113.405 246.400 C 113.241 245.630,112.942 244.794,112.739 244.541 C 112.536 244.289,112.205 242.759,112.004 241.141 C 111.802 239.524,111.425 237.480,111.166 236.600 C 110.547 234.499,110.165 144.909,110.771 144.000 C 111.083 143.531,112.308 143.369,116.385 143.260 L 121.600 143.120 121.600 128.560 L 121.600 114.000 93.200 114.000 L 64.800 114.000 64.800 128.600 M211.200 128.562 L 211.200 143.123 216.700 143.262 C 219.725 143.338,222.425 143.546,222.700 143.724 C 223.096 143.980,223.200 156.477,223.200 204.001 L 223.200 263.955 222.311 264.577 C 221.625 265.058,220.313 265.200,216.554 265.200 C 212.484 265.200,211.646 265.304,211.443 265.833 C 211.127 266.655,211.136 293.120,211.452 294.300 L 211.693 295.200 239.847 295.200 L 268.000 295.200 268.000 280.200 L 268.000 265.200 263.049 265.200 C 259.358 265.200,257.983 265.061,257.646 264.655 C 257.318 264.260,257.222 257.724,257.297 240.955 L 257.400 217.800 278.500 217.696 L 299.600 217.593 299.600 202.796 L 299.600 188.000 278.880 188.000 C 263.298 188.000,258.041 187.881,257.680 187.520 C 256.988 186.828,256.988 144.372,257.680 143.680 C 258.447 142.913,303.168 142.996,304.224 143.767 C 304.933 144.285,305.017 145.004,305.200 152.067 L 305.400 159.800 320.300 159.905 L 335.200 160.010 335.200 137.005 L 335.200 114.000 273.200 114.000 L 211.200 114.000 211.200 128.562 " stroke="none" fill="#0424a4" fill-rule="evenodd"></path><path id="path1" d="M0.000 205.400 L 0.000 410.800 200.000 410.800 L 400.000 410.800 400.000 205.400 L 400.000 0.000 200.000 0.000 L 0.000 0.000 0.000 205.400 M121.956 112.547 C 122.281 112.939,122.380 117.499,122.305 128.647 L 122.200 144.200 116.900 144.312 L 111.600 144.423 111.600 186.114 C 111.600 213.786,111.740 228.275,112.016 229.203 C 112.244 229.971,112.542 232.850,112.677 235.600 C 112.815 238.402,113.139 240.952,113.414 241.400 C 113.684 241.840,114.014 243.067,114.148 244.127 C 114.282 245.186,114.664 246.441,114.996 246.916 C 115.328 247.390,115.600 248.166,115.600 248.640 C 115.600 249.114,115.870 249.726,116.200 250.000 C 116.530 250.274,116.800 250.640,116.800 250.813 C 116.800 251.330,118.915 254.400,119.271 254.400 C 119.452 254.400,119.600 254.670,119.600 255.000 C 119.600 255.330,119.876 255.600,120.213 255.600 C 120.549 255.600,120.929 255.870,121.055 256.200 C 121.182 256.530,121.512 256.800,121.789 256.800 C 122.066 256.800,122.750 257.160,123.309 257.600 C 123.869 258.040,124.644 258.400,125.032 258.400 C 125.420 258.400,126.021 258.648,126.369 258.951 C 128.076 260.440,144.321 260.440,146.031 258.950 C 146.379 258.647,147.144 258.400,147.731 258.400 C 148.319 258.400,148.800 258.225,148.800 258.010 C 148.800 257.796,149.295 257.365,149.900 257.052 C 151.286 256.335,153.566 254.167,154.582 252.600 C 156.006 250.403,157.200 247.966,157.200 247.255 C 157.200 246.869,157.464 246.204,157.787 245.776 C 158.110 245.349,158.388 244.280,158.405 243.400 C 158.421 242.520,158.694 241.080,159.011 240.200 C 160.267 236.707,161.411 146.759,160.223 144.837 C 160.053 144.562,158.250 144.400,155.350 144.400 C 148.511 144.400,149.200 146.158,149.200 128.712 C 149.200 114.005,149.209 113.842,150.070 112.926 L 150.939 112.000 179.247 112.000 L 207.555 112.000 208.177 112.889 C 208.994 114.055,209.128 143.112,208.320 143.920 C 207.997 144.243,206.169 144.400,202.720 144.400 L 197.600 144.400 197.576 189.900 C 197.561 219.433,197.408 236.102,197.141 237.400 C 196.914 238.500,196.599 241.861,196.439 244.869 C 196.280 247.877,195.957 250.577,195.723 250.869 C 195.489 251.161,195.170 252.660,195.016 254.200 C 194.861 255.740,194.479 257.399,194.167 257.886 C 193.855 258.373,193.600 259.464,193.600 260.309 C 193.600 261.155,193.336 262.196,193.013 262.624 C 192.690 263.051,192.420 263.763,192.413 264.206 C 192.406 264.649,192.040 265.684,191.600 266.504 C 191.160 267.325,190.800 268.363,190.800 268.811 C 190.800 269.259,190.530 269.729,190.200 269.855 C 189.870 269.982,189.600 270.503,189.600 271.014 C 189.600 271.525,189.331 272.212,189.002 272.541 C 188.672 272.870,188.220 273.558,187.996 274.070 C 187.771 274.581,187.236 275.540,186.806 276.200 C 186.376 276.860,185.744 277.895,185.402 278.500 C 185.060 279.105,184.604 279.600,184.390 279.600 C 184.175 279.600,184.000 279.818,184.000 280.084 C 184.000 281.357,172.956 290.800,171.467 290.800 C 171.188 290.800,170.789 290.971,170.580 291.179 C 169.874 291.884,166.363 293.600,165.628 293.600 C 165.226 293.600,164.674 293.870,164.400 294.200 C 164.126 294.530,163.263 294.800,162.483 294.800 C 161.702 294.800,160.752 295.081,160.373 295.425 C 159.993 295.768,158.629 296.153,157.341 296.279 C 156.054 296.405,154.749 296.708,154.442 296.951 C 154.136 297.194,151.796 297.518,149.242 297.671 C 146.689 297.823,143.700 298.129,142.600 298.350 C 139.986 298.876,132.690 298.877,130.400 298.353 C 129.410 298.126,126.687 297.815,124.349 297.660 C 122.011 297.506,119.851 297.184,119.549 296.944 C 119.247 296.704,117.946 296.405,116.659 296.279 C 115.371 296.153,114.007 295.768,113.627 295.425 C 113.248 295.081,112.401 294.800,111.745 294.800 C 111.089 294.800,110.204 294.536,109.776 294.213 C 109.349 293.890,108.640 293.619,108.200 293.610 C 107.760 293.602,106.860 293.237,106.200 292.800 C 105.540 292.363,104.704 292.004,104.343 292.003 C 103.981 292.001,103.582 291.730,103.455 291.400 C 103.329 291.070,102.872 290.800,102.441 290.800 C 102.010 290.800,101.419 290.573,101.129 290.295 C 100.838 290.018,100.105 289.572,99.500 289.304 C 98.895 289.036,98.400 288.633,98.400 288.409 C 98.400 288.184,98.218 288.000,97.996 288.000 C 96.683 288.000,86.000 278.362,86.000 277.178 C 86.000 277.002,85.775 276.619,85.500 276.329 C 84.569 275.344,82.800 272.560,82.800 272.078 C 82.800 271.815,82.638 271.600,82.439 271.600 C 82.241 271.600,81.883 271.105,81.645 270.500 C 81.407 269.895,81.050 269.130,80.853 268.800 C 80.102 267.542,78.799 264.489,78.787 263.956 C 78.780 263.650,78.510 263.051,78.187 262.624 C 77.864 262.196,77.600 261.107,77.600 260.204 C 77.600 259.300,77.393 258.353,77.141 258.101 C 76.889 257.849,76.440 255.968,76.144 253.921 C 75.848 251.874,75.438 249.210,75.232 248.000 C 75.015 246.723,74.846 224.533,74.829 195.100 L 74.800 144.400 69.414 144.400 C 62.557 144.400,63.200 146.034,63.200 128.600 C 63.200 114.478,63.312 113.140,64.560 112.306 C 65.452 111.711,121.457 111.945,121.956 112.547 M335.777 112.889 C 336.786 114.329,336.713 159.927,335.700 161.172 C 334.660 162.449,305.108 162.310,304.167 161.024 C 303.723 160.415,303.600 158.533,303.600 152.324 L 303.600 144.400 280.796 144.400 L 257.993 144.400 258.096 165.300 L 258.200 186.200 278.978 186.304 C 299.665 186.407,299.760 186.411,300.678 187.273 L 301.600 188.139 301.600 202.616 C 301.600 216.655,301.575 217.124,300.771 218.146 L 299.942 219.200 278.968 219.200 L 257.993 219.200 258.097 241.500 L 258.200 263.800 263.384 263.913 C 266.916 263.989,268.667 264.181,268.878 264.513 C 269.421 265.367,269.270 295.370,268.720 295.920 C 267.967 296.673,211.471 296.608,210.844 295.853 C 210.519 295.461,210.420 290.901,210.495 279.753 L 210.600 264.200 216.000 264.000 L 221.400 263.800 221.400 204.200 L 221.400 144.600 216.000 144.400 L 210.600 144.200 210.495 128.883 C 210.426 118.778,210.533 113.299,210.809 112.783 C 211.222 112.011,212.096 112.000,273.191 112.000 L 335.155 112.000 335.777 112.889 " stroke="none" fill="#fbfbfb" fill-rule="evenodd"></path><path id="path2" d="M64.483 113.677 C 63.792 114.368,63.789 142.829,64.480 143.520 C 64.803 143.843,66.631 144.000,70.080 144.000 L 75.200 144.000 75.227 187.900 C 75.264 246.136,75.474 250.376,78.892 261.800 C 81.810 271.551,88.859 280.975,98.087 287.461 C 100.212 288.955,108.401 293.200,109.158 293.200 C 109.386 293.200,110.164 293.457,110.886 293.770 C 112.262 294.368,116.390 295.467,121.800 296.676 C 126.428 297.710,146.963 297.703,152.000 296.665 C 171.222 292.704,181.136 285.900,188.461 271.641 C 189.528 269.566,190.400 267.700,190.400 267.494 C 190.400 267.289,190.651 266.554,190.958 265.860 C 192.290 262.850,193.698 257.494,194.602 252.000 C 194.910 250.130,195.373 247.610,195.632 246.400 C 195.972 244.809,196.150 230.538,196.278 194.824 C 196.387 164.105,196.600 145.174,196.841 144.724 C 197.182 144.087,197.813 143.999,202.114 143.994 C 204.801 143.991,207.227 143.844,207.505 143.667 C 207.900 143.416,207.987 140.086,207.905 128.373 L 207.800 113.400 179.200 113.400 L 150.600 113.400 150.495 128.373 C 150.413 140.086,150.500 143.416,150.895 143.667 C 151.173 143.844,153.597 143.991,156.282 143.994 L 161.164 144.000 161.413 145.328 C 161.861 147.718,161.356 229.554,160.874 232.600 C 160.631 234.140,160.251 236.840,160.030 238.600 C 158.102 253.990,150.500 261.200,136.200 261.200 C 127.253 261.200,118.660 257.181,116.408 251.944 C 116.185 251.425,115.834 250.730,115.628 250.400 C 114.584 248.722,112.403 241.613,112.393 239.854 C 112.389 239.164,112.120 236.980,111.795 235.000 C 111.298 231.979,111.203 224.372,111.202 187.712 L 111.200 144.023 116.500 143.912 L 121.800 143.800 121.800 128.600 L 121.800 113.400 93.383 113.297 C 71.612 113.219,64.852 113.308,64.483 113.677 M211.043 113.833 C 210.510 115.221,210.775 143.082,211.326 143.539 C 211.629 143.790,214.048 144.023,217.026 144.087 L 222.200 144.200 222.301 203.976 C 222.382 251.532,222.300 263.816,221.901 264.069 C 221.626 264.245,219.201 264.391,216.514 264.394 C 212.096 264.399,211.588 264.474,211.214 265.174 C 210.768 266.007,210.608 293.835,211.043 294.967 C 211.261 295.536,214.167 295.600,239.796 295.600 L 268.307 295.600 268.548 294.700 C 268.953 293.189,268.831 266.535,268.414 265.438 C 268.033 264.435,267.977 264.423,262.914 264.312 L 257.800 264.200 257.689 242.000 C 257.629 229.790,257.677 219.395,257.797 218.900 L 258.015 218.000 278.965 218.000 C 297.699 218.000,299.940 217.933,300.157 217.367 C 300.699 215.956,300.424 188.118,299.863 187.653 C 299.488 187.341,293.086 187.176,278.563 187.104 L 257.800 187.000 257.800 165.600 L 257.800 144.200 280.774 144.097 C 298.889 144.015,303.816 144.100,304.068 144.497 C 304.244 144.774,304.391 148.369,304.394 152.486 C 304.400 159.474,304.451 159.999,305.174 160.386 C 306.801 161.257,335.107 160.922,335.586 160.026 C 335.857 159.520,336.000 151.574,336.000 137.000 C 336.000 122.426,335.857 114.480,335.586 113.974 C 335.000 112.879,211.462 112.739,211.043 113.833 M121.600 128.560 L 121.600 143.120 116.385 143.260 C 112.308 143.369,111.083 143.531,110.771 144.000 C 110.165 144.909,110.547 234.499,111.166 236.600 C 111.425 237.480,111.802 239.524,112.004 241.141 C 112.205 242.759,112.536 244.289,112.739 244.541 C 112.942 244.794,113.241 245.630,113.405 246.400 C 113.797 248.248,115.783 252.429,116.842 253.639 C 117.305 254.167,117.980 254.961,118.342 255.402 C 125.737 264.420,147.528 263.848,154.833 254.444 C 157.036 251.609,159.200 247.224,159.200 245.596 C 159.200 245.129,159.414 244.354,159.675 243.874 C 160.128 243.040,160.807 238.759,161.590 231.800 C 162.187 226.486,162.103 144.111,161.500 143.736 C 161.225 143.566,158.705 143.354,155.900 143.266 L 150.800 143.105 150.800 128.553 L 150.800 114.000 179.200 114.000 L 207.600 114.000 207.600 128.600 L 207.600 143.200 202.900 143.240 C 200.315 143.262,197.750 143.405,197.200 143.558 L 196.200 143.836 195.978 193.018 C 195.781 236.726,195.682 242.578,195.089 245.600 C 194.722 247.470,194.247 250.170,194.033 251.600 C 193.457 255.463,192.786 258.437,192.158 259.914 C 191.851 260.636,191.594 261.626,191.586 262.114 C 191.579 262.601,191.225 263.720,190.800 264.600 C 190.375 265.480,190.021 266.410,190.014 266.668 C 190.006 266.925,189.739 267.645,189.420 268.268 C 189.101 268.890,188.417 270.300,187.899 271.400 C 185.398 276.717,180.883 282.400,176.378 285.900 C 175.180 286.831,173.996 287.761,173.748 287.968 C 173.499 288.174,172.419 288.815,171.348 289.393 C 170.276 289.970,169.130 290.601,168.800 290.793 C 166.255 292.279,160.019 294.353,155.400 295.250 C 154.300 295.463,152.410 295.847,151.200 296.102 C 147.569 296.868,127.216 296.984,123.600 296.259 C 121.950 295.928,119.700 295.478,118.600 295.259 C 115.600 294.662,112.459 293.765,110.000 292.803 C 108.790 292.329,107.260 291.749,106.600 291.513 C 105.940 291.277,105.165 290.900,104.879 290.675 C 104.592 290.451,103.599 289.892,102.671 289.433 C 97.771 287.012,90.996 281.368,87.600 276.878 C 87.050 276.151,86.285 275.178,85.900 274.717 C 85.515 274.255,85.200 273.738,85.200 273.567 C 85.200 273.397,84.975 273.013,84.700 272.714 C 83.675 271.602,81.699 267.687,80.401 264.200 C 79.910 262.880,79.259 261.209,78.954 260.486 C 78.649 259.764,78.400 258.645,78.400 258.000 C 78.400 257.356,78.138 256.057,77.818 255.114 C 76.499 251.226,76.257 242.857,76.027 193.085 C 75.828 150.030,75.726 143.924,75.200 143.591 C 74.870 143.383,72.395 143.209,69.700 143.206 L 64.800 143.200 64.800 128.600 L 64.800 114.000 93.200 114.000 L 121.600 114.000 121.600 128.560 M335.200 137.005 L 335.200 160.010 320.300 159.905 L 305.400 159.800 305.200 152.067 C 305.017 145.004,304.933 144.285,304.224 143.767 C 303.168 142.996,258.447 142.913,257.680 143.680 C 256.988 144.372,256.988 186.828,257.680 187.520 C 258.041 187.881,263.298 188.000,278.880 188.000 L 299.600 188.000 299.600 202.796 L 299.600 217.593 278.500 217.696 L 257.400 217.800 257.297 240.955 C 257.222 257.724,257.318 264.260,257.646 264.655 C 257.983 265.061,259.358 265.200,263.049 265.200 L 268.000 265.200 268.000 280.200 L 268.000 295.200 239.847 295.200 L 211.693 295.200 211.452 294.300 C 211.136 293.120,211.127 266.655,211.443 265.833 C 211.646 265.304,212.484 265.200,216.554 265.200 C 220.313 265.200,221.625 265.058,222.311 264.577 L 223.200 263.955 223.200 204.001 C 223.200 156.477,223.096 143.980,222.700 143.724 C 222.425 143.546,219.725 143.338,216.700 143.262 L 211.200 143.123 211.200 128.562 L 211.200 114.000 273.200 114.000 L 335.200 114.000 335.200 137.005 " stroke="none" fill="#7c8cd4" fill-rule="evenodd"></path><path id="path3" d="M64.349 113.500 C 63.861 114.122,63.872 114.144,64.447 113.695 C 64.958 113.296,71.098 113.212,93.509 113.295 C 109.137 113.353,121.840 113.265,121.738 113.100 C 121.285 112.366,64.930 112.759,64.349 113.500 M150.444 113.347 C 149.677 114.271,150.020 143.684,150.800 143.897 C 151.249 144.020,151.273 143.971,150.895 143.704 C 150.501 143.425,150.413 140.071,150.495 128.373 L 150.600 113.400 179.200 113.400 L 207.800 113.400 207.905 128.373 C 207.987 140.071,207.899 143.425,207.505 143.704 C 207.127 143.971,207.151 144.020,207.600 143.897 C 208.380 143.684,208.723 114.271,207.956 113.347 C 207.580 112.894,202.648 112.800,179.200 112.800 C 155.752 112.800,150.820 112.894,150.444 113.347 M210.984 113.227 C 210.839 113.461,210.828 113.761,210.960 113.893 C 211.092 114.025,211.200 113.923,211.200 113.667 C 211.200 112.785,335.054 113.018,335.568 113.900 C 335.792 114.285,335.981 114.411,335.988 114.180 C 336.028 112.798,336.124 112.800,273.144 112.800 C 229.737 112.800,211.168 112.927,210.984 113.227 M122.181 128.600 C 122.181 136.740,122.234 140.013,122.300 135.874 C 122.365 131.734,122.365 125.074,122.299 121.074 C 122.234 117.073,122.181 120.460,122.181 128.600 M210.580 128.000 C 210.580 135.590,210.634 138.695,210.699 134.900 C 210.765 131.105,210.765 124.895,210.699 121.100 C 210.634 117.305,210.580 120.410,210.580 128.000 M196.814 144.774 C 196.329 145.679,196.216 235.917,196.700 235.434 C 196.953 235.181,197.565 144.000,197.314 144.000 C 197.267 144.000,197.042 144.348,196.814 144.774 M221.501 144.294 C 221.900 144.576,221.982 156.843,221.901 204.224 L 221.800 263.800 216.825 263.913 C 212.057 264.021,210.785 264.325,210.812 265.349 C 210.819 265.597,211.008 265.485,211.232 265.100 C 211.585 264.494,212.298 264.399,216.520 264.394 C 219.204 264.391,221.626 264.245,221.901 264.069 C 222.725 263.546,222.426 144.328,221.600 144.103 C 221.154 143.981,221.129 144.030,221.501 144.294 M304.091 152.486 C 304.005 159.923,304.044 160.395,304.774 160.786 C 305.267 161.050,310.894 161.200,320.294 161.200 C 335.074 161.200,336.025 161.116,335.988 159.820 C 335.981 159.589,335.792 159.715,335.568 160.100 C 335.041 161.005,306.281 161.194,305.081 160.300 C 304.501 159.868,304.394 158.765,304.296 152.200 L 304.181 144.600 304.091 152.486 M161.392 184.000 C 161.392 205.450,161.441 214.225,161.500 203.500 C 161.559 192.775,161.559 175.225,161.500 164.500 C 161.441 153.775,161.392 162.550,161.392 184.000 M299.900 187.599 C 300.471 188.240,300.635 216.611,300.072 217.496 C 299.830 217.879,294.948 218.017,278.779 218.100 L 257.800 218.207 278.886 218.304 C 299.375 218.397,299.984 218.378,300.386 217.626 C 301.194 216.116,300.929 188.195,300.100 187.568 C 299.504 187.118,299.475 187.122,299.900 187.599 M160.637 229.728 C 160.464 231.669,160.414 233.347,160.525 233.458 C 160.797 233.730,161.326 227.921,161.116 226.962 C 161.024 226.543,160.809 227.788,160.637 229.728 M111.280 230.000 C 111.264 230.990,111.501 233.150,111.808 234.800 C 112.342 237.673,112.356 237.699,112.140 235.400 C 111.638 230.058,111.313 228.015,111.280 230.000 M75.418 240.600 C 75.491 244.340,75.739 248.030,75.969 248.800 C 76.351 250.081,76.366 250.031,76.142 248.200 C 76.008 247.100,75.760 243.410,75.591 240.000 L 75.284 233.800 75.418 240.600 M160.120 236.000 C 160.120 237.210,160.195 237.705,160.287 237.100 C 160.378 236.495,160.378 235.505,160.287 234.900 C 160.195 234.295,160.120 234.790,160.120 236.000 M196.124 239.400 C 196.126 240.720,196.201 241.212,196.290 240.493 C 196.379 239.774,196.377 238.694,196.286 238.093 C 196.195 237.492,196.122 238.080,196.124 239.400 M112.493 240.400 C 112.493 241.170,112.575 241.485,112.676 241.100 C 112.776 240.715,112.776 240.085,112.676 239.700 C 112.575 239.315,112.493 239.630,112.493 240.400 M159.233 241.433 C 158.941 242.424,158.789 243.322,158.896 243.429 C 159.002 243.536,159.319 242.803,159.600 241.800 C 159.881 240.797,160.033 239.899,159.938 239.804 C 159.843 239.710,159.526 240.443,159.233 241.433 M113.026 242.800 C 113.709 245.709,113.917 246.255,113.941 245.200 C 113.954 244.650,113.700 243.660,113.378 243.000 C 112.879 241.979,112.826 241.949,113.026 242.800 M195.498 246.600 C 195.331 247.700,195.109 249.140,195.004 249.800 C 194.885 250.551,195.040 250.326,195.418 249.200 C 195.750 248.210,195.972 246.770,195.911 246.000 C 195.809 244.719,195.774 244.770,195.498 246.600 M114.028 246.600 C 114.028 246.820,114.286 247.450,114.600 248.000 C 114.914 248.550,115.172 248.820,115.172 248.600 C 115.172 248.380,114.914 247.750,114.600 247.200 C 114.286 246.650,114.028 246.380,114.028 246.600 M156.825 249.283 C 156.515 250.007,156.189 250.780,156.101 251.000 C 156.012 251.220,156.329 250.818,156.805 250.106 C 157.281 249.395,157.607 248.622,157.530 248.389 C 157.452 248.156,157.135 248.558,156.825 249.283 M76.509 253.200 C 76.509 254.190,76.587 254.595,76.682 254.100 C 76.778 253.605,76.778 252.795,76.682 252.300 C 76.587 251.805,76.509 252.210,76.509 253.200 M116.400 251.891 C 116.400 252.111,117.435 253.362,118.700 254.671 C 119.965 255.980,120.355 256.320,119.566 255.426 C 118.777 254.532,117.742 253.281,117.266 252.646 C 116.790 252.011,116.400 251.672,116.400 251.891 M154.487 253.444 C 153.765 254.410,153.255 255.200,153.354 255.200 C 153.637 255.200,156.113 251.979,155.948 251.826 C 155.867 251.750,155.209 252.478,154.487 253.444 M194.493 253.600 C 194.493 254.370,194.575 254.685,194.676 254.300 C 194.776 253.915,194.776 253.285,194.676 252.900 C 194.575 252.515,194.493 252.830,194.493 253.600 M193.800 256.000 C 193.650 256.473,193.617 256.950,193.727 257.060 C 193.837 257.170,194.050 256.873,194.200 256.400 C 194.350 255.927,194.383 255.450,194.273 255.340 C 194.163 255.230,193.950 255.527,193.800 256.000 M121.821 257.634 C 122.183 258.220,126.461 260.053,126.971 259.841 C 127.217 259.739,127.177 259.650,126.878 259.632 C 126.590 259.614,125.278 259.066,123.962 258.412 C 122.645 257.759,121.682 257.409,121.821 257.634 M146.600 259.200 C 145.720 259.625,145.270 259.971,145.600 259.970 C 145.930 259.968,146.830 259.622,147.600 259.200 C 149.424 258.201,148.668 258.201,146.600 259.200 M78.016 260.454 C 78.007 260.814,78.269 261.624,78.598 262.254 C 79.366 263.728,79.380 262.906,78.616 261.146 C 78.294 260.406,78.024 260.094,78.016 260.454 M130.000 260.584 C 131.210 260.904,133.010 261.150,134.000 261.131 L 135.800 261.095 133.600 260.790 C 127.449 259.936,127.584 259.944,130.000 260.584 M142.141 260.251 C 141.888 260.355,140.538 260.588,139.141 260.769 C 136.855 261.066,136.780 261.102,138.400 261.132 C 139.390 261.151,141.190 260.919,142.400 260.617 C 143.610 260.315,144.150 260.067,143.600 260.066 C 143.050 260.064,142.393 260.148,142.141 260.251 M192.491 261.300 C 191.810 263.184,191.904 263.694,192.626 262.030 C 192.953 261.277,193.166 260.499,193.101 260.302 C 193.035 260.105,192.760 260.554,192.491 261.300 M79.232 264.024 C 79.214 264.366,79.480 264.996,79.822 265.424 C 80.434 266.188,80.438 266.187,80.076 265.400 C 79.874 264.960,79.608 264.330,79.486 264.000 C 79.293 263.482,79.259 263.485,79.232 264.024 M191.646 264.220 C 191.621 264.671,191.387 265.253,191.127 265.513 C 190.866 265.774,190.762 266.095,190.894 266.228 C 191.270 266.603,192.072 264.839,191.872 264.079 C 191.731 263.546,191.683 263.576,191.646 264.220 M257.861 264.100 C 257.963 264.265,260.292 264.400,263.036 264.400 C 267.837 264.400,268.039 264.434,268.388 265.300 C 268.632 265.909,268.757 265.990,268.775 265.549 C 268.789 265.191,268.570 264.707,268.288 264.473 C 267.712 263.995,257.570 263.632,257.861 264.100 M80.403 266.815 C 80.404 267.137,80.763 267.940,81.200 268.600 C 82.219 270.139,82.219 269.799,81.200 267.800 C 80.760 266.937,80.401 266.494,80.403 266.815 M189.632 269.139 C 188.979 270.360,189.114 270.700,189.841 269.663 C 190.193 269.160,190.388 268.654,190.273 268.540 C 190.159 268.425,189.870 268.695,189.632 269.139 M187.832 272.893 C 187.234 274.052,186.939 274.809,187.177 274.575 C 187.724 274.038,189.233 271.100,189.054 270.921 C 188.981 270.847,188.431 271.735,187.832 272.893 M83.200 272.101 C 83.200 273.303,89.547 280.933,93.074 283.970 C 95.814 286.331,99.998 289.335,100.227 289.106 C 100.307 289.026,99.658 288.498,98.785 287.932 C 93.484 284.494,88.088 279.061,84.100 273.146 C 83.605 272.412,83.200 271.942,83.200 272.101 M181.287 282.147 C 180.139 283.328,179.200 284.408,179.200 284.547 C 179.200 284.797,181.480 282.569,182.962 280.873 C 184.412 279.212,183.366 280.009,181.287 282.147 M175.858 287.032 C 174.350 288.224,173.239 289.200,173.389 289.200 C 173.739 289.200,178.289 285.704,178.606 285.190 C 178.979 284.587,178.790 284.714,175.858 287.032 M171.400 290.027 C 170.740 290.450,170.405 290.797,170.656 290.798 C 170.906 290.799,171.536 290.446,172.056 290.013 C 173.245 289.023,172.959 289.029,171.400 290.027 M103.800 291.200 C 104.460 291.637,105.267 291.996,105.594 291.997 C 105.921 291.999,105.516 291.640,104.696 291.200 C 102.778 290.172,102.248 290.172,103.800 291.200 M168.800 291.461 C 168.249 291.752,168.069 291.988,168.400 291.988 C 169.090 291.988,170.270 291.320,169.988 291.089 C 169.885 291.004,169.350 291.171,168.800 291.461 M163.200 293.800 C 162.650 294.114,162.380 294.372,162.600 294.372 C 162.820 294.372,163.450 294.114,164.000 293.800 C 164.550 293.486,164.820 293.228,164.600 293.228 C 164.380 293.228,163.750 293.486,163.200 293.800 M268.400 294.933 C 268.400 295.734,211.459 295.988,211.063 295.190 C 210.952 294.964,210.906 295.010,210.963 295.290 C 211.135 296.139,268.336 296.233,268.661 295.385 C 268.792 295.044,268.787 294.653,268.649 294.516 C 268.512 294.379,268.400 294.567,268.400 294.933 M115.000 295.414 C 115.660 295.717,116.560 295.960,117.000 295.955 C 117.440 295.950,116.990 295.691,116.000 295.379 C 113.779 294.680,113.422 294.692,115.000 295.414 M157.800 295.411 C 156.920 295.701,156.560 295.944,157.000 295.951 C 157.440 295.958,158.340 295.717,159.000 295.414 C 160.512 294.722,159.896 294.721,157.800 295.411 M120.400 296.621 C 121.390 296.933,122.560 297.178,123.000 297.167 C 123.440 297.155,122.900 296.896,121.800 296.591 C 119.185 295.865,118.076 295.888,120.400 296.621 M151.800 296.609 C 150.248 297.008,150.069 297.125,151.000 297.131 C 151.660 297.136,152.830 296.897,153.600 296.600 C 155.350 295.926,154.439 295.931,151.800 296.609 M126.500 297.487 C 127.105 297.578,128.095 297.578,128.700 297.487 C 129.305 297.395,128.810 297.320,127.600 297.320 C 126.390 297.320,125.895 297.395,126.500 297.487 M144.707 297.490 C 145.426 297.579,146.506 297.577,147.107 297.486 C 147.708 297.395,147.120 297.322,145.800 297.324 C 144.480 297.326,143.988 297.401,144.707 297.490 M134.100 297.896 C 135.365 297.975,137.435 297.975,138.700 297.896 C 139.965 297.816,138.930 297.751,136.400 297.751 C 133.870 297.751,132.835 297.816,134.100 297.896 " stroke="none" fill="#a8b1e1" fill-rule="evenodd"></path><path id="path4" d="M64.560 112.306 C 63.312 113.140,63.200 114.478,63.200 128.600 C 63.200 146.034,62.557 144.400,69.414 144.400 L 74.800 144.400 74.808 194.900 C 74.816 243.609,74.877 246.566,75.985 252.200 L 76.300 253.800 76.340 252.200 C 76.363 251.320,76.168 249.880,75.909 249.000 C 75.562 247.824,75.379 233.713,75.218 195.800 L 75.000 144.200 69.600 144.000 L 64.200 143.800 64.095 128.847 C 64.020 118.143,64.119 113.738,64.444 113.347 C 65.230 112.399,121.414 112.549,121.968 113.500 C 122.304 114.076,122.378 114.090,122.388 113.580 C 122.419 112.000,122.413 112.000,93.220 112.006 C 77.699 112.009,64.802 112.144,64.560 112.306 M150.070 112.926 C 149.209 113.842,149.200 114.005,149.200 128.712 C 149.200 146.158,148.511 144.400,155.350 144.400 C 158.218 144.400,160.054 144.563,160.220 144.833 C 160.555 145.375,160.605 218.175,160.277 227.400 L 160.035 234.200 160.591 229.800 C 161.071 226.005,161.556 144.608,161.100 144.342 C 161.045 144.309,158.570 144.174,155.600 144.042 L 150.200 143.800 150.095 128.847 C 150.020 118.143,150.119 113.738,150.444 113.347 C 150.820 112.894,155.752 112.800,179.200 112.800 C 202.648 112.800,207.580 112.894,207.956 113.347 C 208.281 113.738,208.380 118.143,208.305 128.847 L 208.200 143.800 202.800 144.000 L 197.400 144.200 197.129 189.600 C 196.981 214.570,196.750 236.080,196.617 237.400 C 196.412 239.444,196.452 239.681,196.888 239.000 C 197.295 238.364,197.423 228.576,197.511 191.300 L 197.622 144.400 202.731 144.400 C 206.171 144.400,207.997 144.243,208.320 143.920 C 209.128 143.112,208.994 114.055,208.177 112.889 L 207.555 112.000 179.247 112.000 L 150.939 112.000 150.070 112.926 M210.814 112.774 C 210.586 113.199,210.411 113.784,210.425 114.074 C 210.439 114.363,210.613 114.195,210.812 113.700 L 211.174 112.800 273.107 112.800 C 320.744 112.800,335.151 112.911,335.520 113.280 C 336.213 113.973,336.213 160.027,335.520 160.720 C 334.815 161.425,305.629 161.406,304.681 160.700 C 304.098 160.266,303.995 159.148,303.905 152.200 L 303.800 144.200 280.900 144.195 L 258.000 144.190 280.800 144.298 L 303.600 144.407 303.600 152.327 C 303.600 158.534,303.723 160.415,304.167 161.024 C 305.108 162.310,334.660 162.449,335.700 161.172 C 336.713 159.927,336.786 114.329,335.777 112.889 L 335.155 112.000 273.191 112.000 C 212.340 112.000,211.221 112.014,210.814 112.774 M210.531 142.800 L 210.600 144.200 216.000 144.400 L 221.400 144.600 221.400 204.262 C 221.400 237.076,221.535 263.840,221.700 263.738 C 221.865 263.636,222.000 236.747,222.000 203.984 L 222.000 144.415 221.100 144.206 C 220.605 144.091,218.131 143.952,215.603 143.898 L 211.006 143.800 210.734 142.600 C 210.469 141.432,210.464 141.438,210.531 142.800 M122.000 143.522 C 122.000 143.833,120.329 144.012,116.700 144.088 L 111.400 144.200 111.280 185.000 C 111.163 225.187,111.212 227.406,112.438 237.000 C 112.664 238.765,112.701 238.236,112.581 235.000 C 112.490 232.580,112.233 229.971,112.008 229.203 C 111.742 228.292,111.600 213.283,111.600 186.103 L 111.600 144.400 116.776 144.400 C 121.533 144.400,123.033 144.100,122.240 143.307 C 122.108 143.175,122.000 143.271,122.000 143.522 M257.786 165.600 C 257.786 176.710,257.837 181.255,257.900 175.700 C 257.962 170.145,257.962 161.055,257.900 155.500 C 257.837 149.945,257.786 154.490,257.786 165.600 M258.000 186.700 C 258.000 187.094,262.451 187.200,278.920 187.200 C 294.658 187.200,299.959 187.319,300.320 187.680 C 300.948 188.308,301.010 216.459,300.386 217.626 C 299.985 218.376,299.325 218.400,278.986 218.400 C 265.262 218.400,258.000 218.538,258.000 218.800 C 258.000 219.062,265.257 219.200,278.971 219.200 L 299.942 219.200 300.771 218.146 C 301.575 217.124,301.600 216.655,301.600 202.616 L 301.600 188.139 300.682 187.277 C 299.561 186.224,258.000 185.662,258.000 186.700 M257.691 241.476 C 257.641 253.618,257.735 263.636,257.900 263.738 C 258.172 263.907,258.168 247.256,257.890 227.200 C 257.831 222.910,257.741 229.334,257.691 241.476 M159.666 236.800 C 159.623 237.790,159.329 239.320,159.012 240.200 C 158.695 241.080,158.452 242.520,158.472 243.400 C 158.494 244.350,158.572 244.594,158.665 244.000 C 158.750 243.450,159.096 242.074,159.434 240.943 C 159.771 239.812,159.979 238.012,159.896 236.943 L 159.744 235.000 159.666 236.800 M112.813 241.054 C 112.806 241.304,113.063 242.114,113.384 242.854 C 113.931 244.114,113.970 244.135,113.984 243.176 C 113.993 242.614,113.736 241.804,113.413 241.376 C 113.090 240.949,112.820 240.804,112.813 241.054 M196.000 244.536 C 196.000 246.151,195.732 248.356,195.404 249.436 C 195.077 250.516,194.837 252.120,194.872 253.000 L 194.934 254.600 195.097 253.005 C 195.186 252.128,195.458 251.171,195.701 250.878 C 196.166 250.318,196.683 241.600,196.251 241.600 C 196.113 241.600,196.000 242.921,196.000 244.536 M114.046 245.256 C 114.021 245.617,114.356 246.697,114.791 247.656 C 115.290 248.755,115.586 249.100,115.591 248.589 C 115.596 248.143,115.352 247.423,115.048 246.989 C 114.745 246.555,114.405 245.840,114.294 245.400 C 114.150 244.826,114.080 244.786,114.046 245.256 M157.667 245.875 C 157.410 246.355,157.201 247.074,157.202 247.474 C 157.204 247.984,157.386 247.853,157.813 247.033 C 158.148 246.391,158.357 245.672,158.278 245.434 C 158.199 245.197,157.924 245.395,157.667 245.875 M156.138 249.883 C 154.455 253.233,152.140 255.893,149.900 257.052 C 149.295 257.365,148.800 257.824,148.800 258.072 C 148.800 258.331,149.112 258.242,149.531 257.862 C 149.934 257.498,150.429 257.194,150.631 257.187 C 151.994 257.141,157.830 249.296,157.069 248.535 C 156.976 248.443,156.557 249.049,156.138 249.883 M115.600 249.783 C 115.600 249.938,116.236 251.023,117.014 252.195 C 118.561 254.525,119.600 255.592,119.600 254.849 C 119.600 254.602,119.452 254.400,119.271 254.400 C 118.915 254.400,116.800 251.330,116.800 250.813 C 116.800 250.640,116.530 250.274,116.200 250.000 C 115.870 249.726,115.600 249.629,115.600 249.783 M76.418 255.824 C 76.408 256.496,76.664 257.396,76.987 257.824 C 77.736 258.813,77.744 258.234,77.012 256.200 C 76.446 254.631,76.435 254.624,76.418 255.824 M194.083 256.412 C 193.798 257.340,193.649 258.182,193.750 258.284 C 194.115 258.648,194.847 256.740,194.725 255.743 C 194.618 254.870,194.527 254.965,194.083 256.412 M120.210 256.016 C 120.518 256.515,123.455 258.406,123.892 258.387 C 124.411 258.364,122.347 256.800,121.798 256.800 C 121.516 256.800,121.182 256.530,121.055 256.200 C 120.929 255.870,120.629 255.600,120.389 255.600 C 120.149 255.600,120.069 255.787,120.210 256.016 M125.200 259.000 C 126.510 259.749,127.021 259.749,126.400 259.000 C 126.126 258.670,125.519 258.406,125.051 258.414 C 124.249 258.428,124.258 258.462,125.200 259.000 M146.000 259.000 C 145.373 259.755,145.610 259.756,147.054 259.002 C 148.047 258.485,148.087 258.405,147.349 258.402 C 146.881 258.401,146.274 258.670,146.000 259.000 M77.654 260.411 C 77.625 261.187,77.843 262.177,78.140 262.611 C 78.437 263.045,78.809 263.925,78.965 264.567 C 79.305 265.963,80.407 267.684,80.387 266.789 C 80.380 266.465,80.110 265.851,79.787 265.424 C 79.464 264.996,79.200 264.394,79.200 264.084 C 79.200 263.774,78.940 262.954,78.623 262.260 C 78.306 261.567,77.970 260.550,77.878 260.000 C 77.750 259.245,77.696 259.345,77.654 260.411 M130.000 260.227 C 131.650 260.553,134.440 260.820,136.200 260.820 C 137.960 260.820,140.750 260.553,142.400 260.227 L 145.400 259.634 141.600 259.914 C 139.510 260.067,137.080 260.193,136.200 260.193 C 135.320 260.193,132.890 260.067,130.800 259.914 L 127.000 259.634 130.000 260.227 M192.664 262.072 C 192.259 263.462,191.645 265.186,191.299 265.902 C 190.954 266.619,190.767 267.300,190.883 267.417 C 191.158 267.691,192.400 265.078,192.400 264.225 C 192.400 263.866,192.683 263.140,193.029 262.612 C 193.375 262.084,193.600 261.177,193.529 260.597 C 193.430 259.788,193.229 260.131,192.664 262.072 M210.667 264.267 C 210.152 264.782,210.358 295.398,210.880 295.920 C 211.574 296.614,268.026 296.614,268.720 295.920 C 269.740 294.900,269.342 264.000,268.308 264.000 C 268.057 264.000,268.075 264.208,268.356 264.547 C 268.681 264.939,268.780 269.447,268.705 280.447 L 268.600 295.800 239.800 295.800 L 211.000 295.800 210.895 280.447 C 210.820 269.447,210.919 264.939,211.244 264.547 C 211.694 264.005,211.179 263.755,210.667 264.267 M80.400 268.062 C 80.400 268.414,80.652 268.911,80.961 269.167 C 81.269 269.423,81.633 270.075,81.768 270.616 C 81.904 271.157,82.192 271.600,82.408 271.600 C 82.623 271.600,82.800 271.815,82.800 272.078 C 82.800 272.560,84.569 275.344,85.500 276.329 C 85.775 276.619,86.000 277.002,86.000 277.178 C 86.000 277.791,93.412 285.105,95.496 286.548 C 98.418 288.572,98.562 288.361,95.748 286.179 C 90.492 282.103,86.505 277.632,82.925 271.800 C 82.655 271.360,82.244 270.577,82.012 270.060 C 81.271 268.412,80.400 267.332,80.400 268.062 M190.138 269.013 C 189.879 269.565,189.841 270.000,190.050 270.000 C 190.495 270.000,190.934 268.995,190.738 268.426 C 190.662 268.206,190.392 268.470,190.138 269.013 M188.869 271.503 C 187.897 273.512,187.868 273.808,188.738 272.839 C 189.212 272.310,189.600 271.545,189.600 271.139 C 189.600 270.155,189.497 270.206,188.869 271.503 M186.444 275.797 C 185.760 276.811,185.200 277.736,185.200 277.853 C 185.200 278.155,182.319 281.703,181.600 282.287 C 181.270 282.555,181.181 282.780,181.401 282.787 C 181.922 282.804,184.000 280.604,184.000 280.036 C 184.000 279.796,184.162 279.600,184.360 279.600 C 184.681 279.600,186.330 277.249,186.746 276.200 C 186.833 275.980,187.180 275.484,187.516 275.098 C 187.853 274.711,188.029 274.296,187.908 274.175 C 187.787 274.053,187.128 274.784,186.444 275.797 M179.525 284.433 C 177.793 286.045,173.735 289.200,173.393 289.200 C 173.246 289.200,172.669 289.560,172.109 290.000 C 170.286 291.434,171.915 290.841,174.287 289.207 C 176.573 287.632,181.605 283.200,181.107 283.200 C 180.965 283.200,180.253 283.755,179.525 284.433 M98.400 288.347 C 98.400 288.605,98.895 289.036,99.500 289.304 C 100.105 289.572,100.838 290.018,101.129 290.295 C 101.419 290.573,101.959 290.797,102.329 290.794 C 102.974 290.788,102.107 290.141,100.400 289.355 C 100.070 289.203,99.485 288.808,99.100 288.477 C 98.637 288.080,98.400 288.036,98.400 288.347 M106.200 292.800 C 106.860 293.237,107.760 293.602,108.200 293.610 C 108.640 293.619,109.349 293.890,109.776 294.213 C 110.204 294.536,110.924 294.794,111.376 294.786 C 112.336 294.771,109.409 293.236,108.376 293.214 C 108.034 293.206,107.404 292.936,106.976 292.613 C 106.549 292.290,105.930 292.021,105.600 292.015 C 105.270 292.010,105.540 292.363,106.200 292.800 M166.800 292.609 C 166.250 292.903,164.900 293.511,163.800 293.959 C 162.207 294.608,162.014 294.777,162.851 294.787 C 163.429 294.794,164.126 294.530,164.400 294.200 C 164.674 293.870,165.281 293.599,165.749 293.597 C 166.217 293.596,167.140 293.237,167.800 292.800 C 169.135 291.916,168.367 291.769,166.800 292.609 M113.651 295.422 C 114.024 295.795,115.222 296.110,116.637 296.208 C 118.937 296.368,118.951 296.363,117.149 296.026 C 116.130 295.836,114.927 295.482,114.475 295.240 C 113.303 294.613,112.925 294.696,113.651 295.422 M159.000 295.414 C 158.340 295.717,157.227 295.972,156.526 295.982 C 155.825 295.992,154.745 296.204,154.126 296.454 C 153.507 296.703,151.830 297.038,150.400 297.197 L 147.800 297.486 150.340 297.543 C 151.781 297.575,153.424 297.357,154.140 297.038 C 154.833 296.729,156.379 296.373,157.576 296.248 C 158.773 296.122,160.026 295.745,160.362 295.410 C 161.098 294.673,160.616 294.675,159.000 295.414 M119.507 296.836 C 119.826 297.174,121.091 297.404,122.907 297.454 C 125.740 297.531,125.755 297.527,123.600 297.236 C 122.390 297.072,120.860 296.794,120.200 296.617 C 119.202 296.351,119.085 296.388,119.507 296.836 M128.924 298.186 C 130.056 298.686,143.121 298.672,144.294 298.170 C 144.899 297.911,142.421 297.789,136.618 297.794 C 130.762 297.798,128.325 297.922,128.924 298.186 " stroke="none" fill="#ccd4ec" fill-rule="evenodd"></path></g></svg>